<svg width="12" height="12"
                          viewBox="0 0 16 16" fill="none" xmlns="http://www.w3.org/2000/svg"
                          position="left-[16px] top-[16px]">
                          <rect x="0.000488281" width="16.0002" height="16.0002" rx="8.00011" fill="#FFBD82"></rect>
                          <path fill-rule="evenodd" clip-rule="evenodd"
                            d="M11.4891 7.11313C11.6384 6.1135 10.8773 5.57612 9.8366 5.21764L10.1742 3.86351L9.34969 3.65809L9.02102 4.97653C8.80457 4.92254 8.58201 4.87159 8.36086 4.82112L8.69188 3.49399L7.86809 3.28857L7.53026 4.64223C7.3509 4.60138 7.17483 4.561 7.00392 4.51851L7.00486 4.51428L5.86813 4.23045L5.64886 5.11082C5.64886 5.11082 6.26042 5.25098 6.24751 5.25966C6.58134 5.343 6.64191 5.56392 6.63158 5.73905L6.24704 7.28169C6.27005 7.28756 6.29986 7.29601 6.33273 7.30916L6.24586 7.28756L5.70661 9.44857C5.66576 9.54999 5.56223 9.70212 5.32887 9.64437C5.33709 9.65634 4.72975 9.49482 4.72975 9.49482L4.32056 10.4386L5.39343 10.706C5.51455 10.7363 5.6342 10.7675 5.75254 10.7984C5.82917 10.8184 5.90525 10.8383 5.98081 10.8576L5.6397 12.2275L6.46302 12.4329L6.80108 11.0778C7.02575 11.1389 7.24409 11.1952 7.45772 11.2483L7.12107 12.597L7.94533 12.8024L8.28644 11.4354C9.69198 11.7014 10.7491 11.5941 11.1935 10.3231C11.552 9.2995 11.1759 8.70906 10.4364 8.32381C10.975 8.19915 11.3806 7.84489 11.4889 7.11313H11.4891ZM9.60539 9.75408C9.37139 10.6935 7.90059 10.3048 7.22824 10.1271C7.16803 10.1112 7.11422 10.097 7.06828 10.0856L7.52091 8.27107C7.57706 8.28508 7.64567 8.30048 7.72338 8.31792C8.41897 8.474 9.84446 8.79388 9.60562 9.75408H9.60539ZM7.86312 7.47604C8.42413 7.62571 9.647 7.95195 9.86003 7.09853C10.0778 6.22546 8.88871 5.96231 8.30796 5.8338C8.24268 5.81935 8.18508 5.8066 8.13803 5.79488L7.72766 7.44059C7.76649 7.45026 7.81207 7.46242 7.86312 7.47604Z"
                            fill="#0A0A0A"></path>
                        </svg>