<svg width="25" height="25" viewBox="0 0 34 34" fill="none"
                        xmlns="http://www.w3.org/2000/svg">
                        <rect width="34" height="34" rx="17" fill="#F7931A"></rect>
                        <rect width="34" height="34" rx="17" fill="url(#paint0_radial_1286_125068)" fill-opacity="0.15">
                        </rect>
                        <path fill-rule="evenodd" clip-rule="evenodd"
                          d="M24.4128 15.1154C24.73 12.9912 23.1127 11.8493 20.9012 11.0875L21.6186 8.21001L19.8666 7.7735L19.1682 10.5751C18.7082 10.4604 18.2353 10.3522 17.7653 10.2449L18.4687 7.42479L16.7182 6.98828L16.0003 9.86476C15.6192 9.77795 15.2451 9.69215 14.8819 9.60185L14.8839 9.59287L12.4684 8.98974L12.0024 10.8605C12.0024 10.8605 13.302 11.1583 13.2745 11.1768C13.9839 11.3539 14.1126 11.8233 14.0907 12.1955L13.2735 15.4735C13.3224 15.486 13.3858 15.504 13.4556 15.5319L13.271 15.486L12.1251 20.0781C12.0383 20.2936 11.8183 20.6169 11.3225 20.4942C11.3399 20.5196 10.0493 20.1764 10.0493 20.1764L9.17981 22.1818L11.4596 22.75C11.717 22.8145 11.9712 22.8808 12.2226 22.9464L12.2234 22.9466C12.386 22.9891 12.5474 23.0312 12.7078 23.0723L11.983 25.9832L13.7325 26.4197L14.4509 23.5402C14.9283 23.67 15.3922 23.7897 15.8462 23.9024L15.1308 26.7684L16.8823 27.2049L17.6072 24.3C20.5939 24.8652 22.8403 24.6373 23.7847 21.9364C24.5465 19.7613 23.7473 18.5067 22.1758 17.688C23.3202 17.4231 24.1823 16.6703 24.4123 15.1154H24.4128ZM20.4101 20.7275C19.9128 22.7238 16.7874 21.8978 15.3587 21.5202C15.2308 21.4864 15.1164 21.4562 15.0188 21.4319L15.9806 17.5762C16.0999 17.606 16.2457 17.6387 16.4109 17.6757L16.4109 17.6757C17.889 18.0074 20.9181 18.6871 20.4106 20.7275H20.4101ZM16.7079 15.8869C17.9 16.2049 20.4986 16.8982 20.9513 15.0847C21.4141 13.2294 18.8872 12.6702 17.6532 12.3971C17.5144 12.3664 17.392 12.3394 17.2921 12.3145L16.42 15.8115C16.5026 15.8321 16.5994 15.8579 16.7079 15.8869Z"
                          fill="white"></path>
                        <defs>
                          <radialGradient id="paint0_radial_1286_125068" cx="0" cy="0" r="1"
                            gradientUnits="userSpaceOnUse" gradientTransform="translate(17) rotate(90) scale(21.7411)">
                            <stop stop-color="white"></stop>
                            <stop offset="1" stop-color="white" stop-opacity="0"></stop>
                          </radialGradient>
                        </defs>
                      </svg>