<svg width="12" height="12"
                          viewBox="0 0 16 16" fill="none" xmlns="http://www.w3.org/2000/svg"
                          position="left-[16px] top-[16px]">
                          <rect width="16.0002" height="16.0002" rx="8.00011" fill="white"></rect>
                          <rect width="16.0002" height="16.0002" rx="8.00011" fill="url(#paint0_radial_1286_125215)"
                            fill-opacity="0.15"></rect>
                          <path
                            d="M7.99967 5.26782C8.90599 5.26782 9.64071 4.82584 9.64071 4.28064C9.64071 3.73543 8.90599 3.29346 7.99967 3.29346C7.09336 3.29346 6.35864 3.73543 6.35864 4.28064C6.35864 4.82584 7.09336 5.26782 7.99967 5.26782Z"
                            fill="#E82A8F"></path>
                          <path
                            d="M7.99967 12.7063C8.90599 12.7063 9.64071 12.2643 9.64071 11.7191C9.64071 11.1739 8.90599 10.7319 7.99967 10.7319C7.09336 10.7319 6.35864 11.1739 6.35864 11.7191C6.35864 12.2643 7.09336 12.7063 7.99967 12.7063Z"
                            fill="#E82A8F"></path>
                          <path
                            d="M5.71284 6.63463C6.166 5.82282 6.16306 4.94358 5.70627 4.67079C5.24949 4.39801 4.51183 4.83497 4.05867 5.64678C3.60552 6.4586 3.60846 7.33784 4.06524 7.61062C4.52203 7.88341 5.25969 7.44644 5.71284 6.63463Z"
                            fill="#E82A8F"></path>
                          <path
                            d="M11.9401 10.3527C12.3933 9.5409 12.3906 8.66181 11.9341 8.38921C11.4776 8.11661 10.7402 8.55372 10.2871 9.36553C9.83391 10.1773 9.8366 11.0564 10.2931 11.329C10.7496 11.6016 11.487 11.1645 11.9401 10.3527Z"
                            fill="#E82A8F"></path>
                          <path
                            d="M5.70652 11.3287C6.16331 11.0559 6.16625 10.1767 5.71309 9.36488C5.25993 8.55307 4.52228 8.1161 4.06549 8.38889C3.6087 8.66168 3.60576 9.54092 4.05892 10.3527C4.51208 11.1645 5.24973 11.6015 5.70652 11.3287Z"
                            fill="#E82A8F"></path>
                          <path
                            d="M11.9345 7.61079C12.391 7.33819 12.3936 6.4591 11.9405 5.64729C11.4873 4.83547 10.7499 4.39836 10.2934 4.67096C9.83697 4.94356 9.83428 5.82265 10.2874 6.63447C10.7406 7.44628 11.478 7.8834 11.9345 7.61079Z"
                            fill="#E82A8F"></path>
                          <defs>
                            <radialGradient id="paint0_radial_1286_125215" cx="0" cy="0" r="1"
                              gradientUnits="userSpaceOnUse"
                              gradientTransform="translate(8.00011) rotate(90) scale(10.2313)">
                              <stop stop-color="white"></stop>
                              <stop offset="1" stop-color="white" stop-opacity="0"></stop>
                            </radialGradient>
                          </defs>
                        </svg>