<svg width="25" height="25" viewBox="0 0 34 34" fill="none"
                        xmlns="http://www.w3.org/2000/svg">
                        <rect width="34" height="34" rx="17" fill="#E82A8F"></rect>
                        <rect width="34" height="34" rx="17" fill="url(#paint0_radial_1286_125052)" fill-opacity="0.15">
                        </rect>
                        <path
                          d="M16.9992 11.194C18.9251 11.194 20.4864 10.2548 20.4864 9.09626C20.4864 7.93772 18.9251 6.99854 16.9992 6.99854C15.0733 6.99854 13.5121 7.93772 13.5121 9.09626C13.5121 10.2548 15.0733 11.194 16.9992 11.194Z"
                          fill="white"></path>
                        <path
                          d="M16.9992 27.0001C18.9251 27.0001 20.4864 26.061 20.4864 24.9024C20.4864 23.7439 18.9251 22.8047 16.9992 22.8047C15.0733 22.8047 13.5121 23.7439 13.5121 24.9024C13.5121 26.061 15.0733 27.0001 16.9992 27.0001Z"
                          fill="white"></path>
                        <path
                          d="M12.1396 14.0977C13.1026 12.3726 13.0963 10.5043 12.1257 9.92459C11.155 9.34493 9.5875 10.2735 8.62455 11.9985C7.6616 13.7236 7.66785 15.592 8.63851 16.1716C9.60917 16.7513 11.1767 15.8228 12.1396 14.0977Z"
                          fill="white"></path>
                        <path
                          d="M25.3724 21.9996C26.3353 20.2745 26.3296 18.4065 25.3596 17.8272C24.3896 17.2479 22.8226 18.1768 21.8597 19.9019C20.8967 21.6269 20.9024 23.495 21.8724 24.0743C22.8424 24.6535 24.4094 23.7247 25.3724 21.9996Z"
                          fill="white"></path>
                        <path
                          d="M12.1261 24.0739C13.0968 23.4943 13.1031 21.6259 12.1401 19.9008C11.1772 18.1758 9.60966 17.2472 8.639 17.8269C7.66834 18.4066 7.66209 20.2749 8.62504 22C9.58799 23.7251 11.1555 24.6536 12.1261 24.0739Z"
                          fill="white"></path>
                        <path
                          d="M25.3604 16.1723C26.3304 15.593 26.3361 13.725 25.3732 11.9999C24.4102 10.2748 22.8433 9.34598 21.8733 9.92526C20.9033 10.5045 20.8976 12.3726 21.8605 14.0977C22.8235 15.8227 24.3904 16.7516 25.3604 16.1723Z"
                          fill="white"></path>
                        <defs>
                          <radialGradient id="paint0_radial_1286_125052" cx="0" cy="0" r="1"
                            gradientUnits="userSpaceOnUse" gradientTransform="translate(17) rotate(90) scale(21.7411)">
                            <stop stop-color="white"></stop>
                            <stop offset="1" stop-color="white" stop-opacity="0"></stop>
                          </radialGradient>
                        </defs>
                      </svg>