<svg width="25" height="25" viewBox="0 0 24 24" fill="none"
                        xmlns="http://www.w3.org/2000/svg">
                        <g clip-path="url(#clip0_2534_1224)">
                          <g filter="url(#filter0_i_2534_1224)">
                            <rect y="0.0488281" width="24.0516" height="24.0516" rx="12.0258" fill="#2C2D2C"></rect>
                            <rect y="0.0488281" width="24.0516" height="24.0516" rx="12.0258"
                              fill="url(#paint0_radial_2534_1224)" fill-opacity="0.15"></rect>
                          </g>
                          <rect x="0.2" y="0.248828" width="23.6516" height="23.6516" rx="11.8258" stroke="white"
                            stroke-opacity="0.06" stroke-width="0.4"></rect>
                          <g opacity="0.5" filter="url(#filter1_f_2534_1224)">
                            <path
                              d="M7.42743 14.9179C7.51152 14.8338 7.62716 14.7848 7.7498 14.7848H18.8717C19.075 14.7848 19.1766 15.0301 19.0329 15.1737L16.8359 17.3708C16.7518 17.4549 16.6361 17.504 16.5135 17.504H5.39156C5.18832 17.504 5.0867 17.2587 5.23037 17.115L7.42743 14.9179Z"
                              fill="url(#paint1_linear_2534_1224)"></path>
                            <path
                              d="M7.4273 6.71513C7.51491 6.63103 7.63054 6.58197 7.74968 6.58197H18.8716C19.0749 6.58197 19.1765 6.82726 19.0328 6.97092L16.8358 9.16798C16.7517 9.25208 16.636 9.30114 16.5134 9.30114H5.39144C5.1882 9.30114 5.08658 9.05585 5.23025 8.91218L7.4273 6.71513Z"
                              fill="url(#paint2_linear_2534_1224)"></path>
                            <path
                              d="M16.8359 10.79C16.7518 10.7059 16.6361 10.6569 16.5135 10.6569H5.39156C5.18832 10.6569 5.0867 10.9021 5.23037 11.0458L7.42743 13.2429C7.51152 13.327 7.62716 13.376 7.7498 13.376H18.8717C19.075 13.376 19.1766 13.1307 19.0329 12.9871L16.8359 10.79Z"
                              fill="url(#paint3_linear_2534_1224)"></path>
                          </g>
                          <g opacity="0.5" filter="url(#filter2_f_2534_1224)">
                            <path
                              d="M7.42743 14.9179C7.51152 14.8338 7.62716 14.7848 7.7498 14.7848H18.8717C19.075 14.7848 19.1766 15.0301 19.0329 15.1737L16.8359 17.3708C16.7518 17.4549 16.6361 17.504 16.5135 17.504H5.39156C5.18832 17.504 5.0867 17.2587 5.23037 17.115L7.42743 14.9179Z"
                              fill="url(#paint4_linear_2534_1224)"></path>
                            <path
                              d="M7.4273 6.71513C7.51491 6.63103 7.63054 6.58197 7.74968 6.58197H18.8716C19.0749 6.58197 19.1765 6.82726 19.0328 6.97092L16.8358 9.16798C16.7517 9.25208 16.636 9.30114 16.5134 9.30114H5.39144C5.1882 9.30114 5.08658 9.05585 5.23025 8.91218L7.4273 6.71513Z"
                              fill="url(#paint5_linear_2534_1224)"></path>
                            <path
                              d="M16.8359 10.79C16.7518 10.7059 16.6361 10.6569 16.5135 10.6569H5.39156C5.18832 10.6569 5.0867 10.9021 5.23037 11.0458L7.42743 13.2429C7.51152 13.327 7.62716 13.376 7.7498 13.376H18.8717C19.075 13.376 19.1766 13.1307 19.0329 12.9871L16.8359 10.79Z"
                              fill="url(#paint6_linear_2534_1224)"></path>
                          </g>
                          <path
                            d="M7.33272 15.1799C7.3734 15.1392 7.42978 15.1151 7.48994 15.1151H18.1995C18.2003 15.1151 18.2009 15.1152 18.2013 15.1152C18.2016 15.1156 18.2019 15.1161 18.2022 15.1168C18.2025 15.1175 18.2026 15.118 18.2027 15.1185C18.2024 15.1188 18.202 15.1193 18.2015 15.1198L16.0859 17.2354C16.0452 17.2761 15.9888 17.3001 15.9287 17.3001H5.21914C5.21834 17.3001 5.21772 17.3001 5.21727 17.3001C5.21702 17.2997 5.21672 17.2992 5.21643 17.2985C5.21614 17.2978 5.21599 17.2972 5.21591 17.2968C5.21619 17.2965 5.21659 17.296 5.21713 17.2955L7.33272 15.1799Z"
                            fill="url(#paint7_linear_2534_1224)" stroke="url(#paint8_linear_2534_1224)"
                            stroke-width="0.433313"></path>
                          <path
                            d="M7.1794 7.12816C7.26375 7.04718 7.3751 6.99994 7.48982 6.99994H18.1993C18.395 6.99994 18.4929 7.23613 18.3545 7.37447L16.239 9.49005C16.158 9.57103 16.0466 9.61827 15.9285 9.61827H5.21902C5.02332 9.61827 4.92547 9.38208 5.06381 9.24374L7.1794 7.12816Z"
                            fill="url(#paint9_linear_2534_1224)"></path>
                          <path
                            d="M5.21701 9.39694L7.3308 7.28315C7.37725 7.23919 7.43516 7.2166 7.48982 7.2166H18.1993C18.2001 7.2166 18.2008 7.21663 18.2012 7.21667C18.2015 7.21703 18.2018 7.21755 18.202 7.21826C18.2023 7.21895 18.2025 7.21952 18.2026 7.21994C18.2023 7.22028 18.2019 7.22073 18.2013 7.22127L16.0858 9.33685C16.0451 9.37754 15.9887 9.40161 15.9285 9.40161H5.21902C5.21822 9.40161 5.2176 9.40158 5.21714 9.40153C5.2169 9.40118 5.2166 9.40066 5.21631 9.39995C5.21602 9.39926 5.21587 9.39869 5.21578 9.39827C5.21607 9.39793 5.21647 9.39748 5.21701 9.39694Z"
                            stroke="url(#paint10_linear_2534_1224)" stroke-opacity="0.5" stroke-width="0.433313"></path>
                          <path
                            d="M15.9287 11.1402C15.9888 11.1402 16.0452 11.1643 16.0859 11.2049L18.2015 13.3205C18.202 13.3211 18.2024 13.3215 18.2027 13.3219C18.2026 13.3223 18.2025 13.3228 18.2022 13.3235C18.2019 13.3242 18.2016 13.3248 18.2013 13.3251C18.2009 13.3252 18.2003 13.3252 18.1995 13.3252H7.48994C7.42978 13.3252 7.3734 13.3011 7.33272 13.2604L5.21713 11.1449C5.21659 11.1443 5.21619 11.1439 5.21591 11.1435C5.21599 11.1431 5.21614 11.1425 5.21643 11.1418C5.21672 11.1411 5.21702 11.1406 5.21727 11.1403C5.21772 11.1402 5.21834 11.1402 5.21914 11.1402H15.9287Z"
                            fill="url(#paint11_linear_2534_1224)" stroke="url(#paint12_linear_2534_1224)"
                            stroke-width="0.433313"></path>
                        </g>
                        <defs>
                          <filter id="filter0_i_2534_1224" x="0" y="0.0488281" width="25.4768" height="25.4768"
                            filterUnits="userSpaceOnUse" color-interpolation-filters="sRGB">
                            <feFlood flood-opacity="0" result="BackgroundImageFix"></feFlood>
                            <feBlend mode="normal" in="SourceGraphic" in2="BackgroundImageFix" result="shape"></feBlend>
                            <feColorMatrix in="SourceAlpha" type="matrix"
                              values="0 0 0 0 0 0 0 0 0 0 0 0 0 0 0 0 0 0 127 0" result="hardAlpha"></feColorMatrix>
                            <feOffset dx="1.42513" dy="1.42513"></feOffset>
                            <feGaussianBlur stdDeviation="4.63166"></feGaussianBlur>
                            <feComposite in2="hardAlpha" operator="arithmetic" k2="-1" k3="1"></feComposite>
                            <feColorMatrix type="matrix" values="0 0 0 0 0 0 0 0 0 0 0 0 0 0 0 0 0 0 0.25 0">
                            </feColorMatrix>
                            <feBlend mode="normal" in2="shape" result="effect1_innerShadow_2534_1224"></feBlend>
                          </filter>
                          <filter id="filter1_f_2534_1224" x="-5.37731" y="-3.95831" width="35.0178" height="32.0028"
                            filterUnits="userSpaceOnUse" color-interpolation-filters="sRGB">
                            <feFlood flood-opacity="0" result="BackgroundImageFix"></feFlood>
                            <feBlend mode="normal" in="SourceGraphic" in2="BackgroundImageFix" result="shape"></feBlend>
                            <feGaussianBlur stdDeviation="5.27014" result="effect1_foregroundBlur_2534_1224">
                            </feGaussianBlur>
                          </filter>
                          <filter id="filter2_f_2534_1224" x="-15.2809" y="-13.8619" width="54.825" height="51.8101"
                            filterUnits="userSpaceOnUse" color-interpolation-filters="sRGB">
                            <feFlood flood-opacity="0" result="BackgroundImageFix"></feFlood>
                            <feBlend mode="normal" in="SourceGraphic" in2="BackgroundImageFix" result="shape"></feBlend>
                            <feGaussianBlur stdDeviation="10.2219" result="effect1_foregroundBlur_2534_1224">
                            </feGaussianBlur>
                          </filter>
                          <radialGradient id="paint0_radial_2534_1224" cx="0" cy="0" r="1"
                            gradientUnits="userSpaceOnUse"
                            gradientTransform="translate(12.0258 0.0488281) rotate(90) scale(15.3797)">
                            <stop stop-color="white"></stop>
                            <stop offset="1" stop-color="white" stop-opacity="0"></stop>
                          </radialGradient>
                          <linearGradient id="paint1_linear_2534_1224" x1="17.8093" y1="5.26928" x2="10.112"
                            y2="20.0127" gradientUnits="userSpaceOnUse">
                            <stop stop-color="#00FFA3"></stop>
                            <stop offset="1" stop-color="#DC1FFF"></stop>
                          </linearGradient>
                          <linearGradient id="paint2_linear_2534_1224" x1="14.4435" y1="3.51235" x2="6.74622"
                            y2="18.2557" gradientUnits="userSpaceOnUse">
                            <stop stop-color="#00FFA3"></stop>
                            <stop offset="1" stop-color="#DC1FFF"></stop>
                          </linearGradient>
                          <linearGradient id="paint3_linear_2534_1224" x1="16.1157" y1="4.38498" x2="8.41846"
                            y2="19.1284" gradientUnits="userSpaceOnUse">
                            <stop stop-color="#00FFA3"></stop>
                            <stop offset="1" stop-color="#DC1FFF"></stop>
                          </linearGradient>
                          <linearGradient id="paint4_linear_2534_1224" x1="17.8093" y1="5.26928" x2="10.112"
                            y2="20.0127" gradientUnits="userSpaceOnUse">
                            <stop stop-color="#00FFA3"></stop>
                            <stop offset="1" stop-color="#DC1FFF"></stop>
                          </linearGradient>
                          <linearGradient id="paint5_linear_2534_1224" x1="14.4435" y1="3.51235" x2="6.74622"
                            y2="18.2557" gradientUnits="userSpaceOnUse">
                            <stop stop-color="#00FFA3"></stop>
                            <stop offset="1" stop-color="#DC1FFF"></stop>
                          </linearGradient>
                          <linearGradient id="paint6_linear_2534_1224" x1="16.1157" y1="4.38498" x2="8.41846"
                            y2="19.1284" gradientUnits="userSpaceOnUse">
                            <stop stop-color="#00FFA3"></stop>
                            <stop offset="1" stop-color="#DC1FFF"></stop>
                          </linearGradient>
                          <linearGradient id="paint7_linear_2534_1224" x1="17.1764" y1="5.73582" x2="9.76454"
                            y2="19.9325" gradientUnits="userSpaceOnUse">
                            <stop stop-color="#00FFA3"></stop>
                            <stop offset="1" stop-color="#DC1FFF"></stop>
                          </linearGradient>
                          <linearGradient id="paint8_linear_2534_1224" x1="4.99915" y1="16.2076" x2="18.4195"
                            y2="16.2076" gradientUnits="userSpaceOnUse">
                            <stop stop-color="#DF59F3"></stop>
                            <stop offset="1" stop-color="#91B4E0"></stop>
                          </linearGradient>
                          <linearGradient id="paint9_linear_2534_1224" x1="13.9354" y1="4.04415" x2="6.52356"
                            y2="18.2408" gradientUnits="userSpaceOnUse">
                            <stop stop-color="#00FFA3"></stop>
                            <stop offset="1" stop-color="#DC1FFF"></stop>
                          </linearGradient>
                          <linearGradient id="paint10_linear_2534_1224" x1="4.99902" y1="8.3091" x2="18.4193"
                            y2="8.3091" gradientUnits="userSpaceOnUse">
                            <stop stop-color="#D4B5E8"></stop>
                            <stop offset="0.229137" stop-color="#67C9D7"></stop>
                            <stop offset="1" stop-color="#17F3C6"></stop>
                          </linearGradient>
                          <linearGradient id="paint11_linear_2534_1224" x1="15.5456" y1="4.88422" x2="8.1338"
                            y2="19.0809" gradientUnits="userSpaceOnUse">
                            <stop stop-color="#00FFA3"></stop>
                            <stop offset="1" stop-color="#DC1FFF"></stop>
                          </linearGradient>
                          <linearGradient id="paint12_linear_2534_1224" x1="4.99915" y1="12.2327" x2="18.4195"
                            y2="12.2327" gradientUnits="userSpaceOnUse">
                            <stop stop-color="#B293E9"></stop>
                            <stop offset="1" stop-color="#6EC6D8"></stop>
                          </linearGradient>
                          <clipPath id="clip0_2534_1224">
                            <rect width="24" height="24" rx="12" fill="white"></rect>
                          </clipPath>
                        </defs>
                      </svg>