<svg width="19" height="19" viewBox="0 0 34 35"
                              fill="none" xmlns="http://www.w3.org/2000/svg">
                              <g clip-path="url(#clip0_1286_125062)">
                                <rect y="0.931152" width="34" height="34" rx="17" fill="#2769BE"></rect>
                                <rect y="0.931152" width="34" height="34" rx="17" fill="url(#paint0_radial_1286_125062)"
                                  fill-opacity="0.12"></rect>
                                <g filter="url(#filter0_d_1286_125062)">
                                  <path
                                    d="M20.996 20.0946C20.996 17.9742 19.7123 17.2472 17.1451 16.9444C15.3113 16.702 14.9445 16.2174 14.9445 15.3691C14.9445 14.5208 15.5558 13.9757 16.7783 13.9757C17.8786 13.9757 18.4899 14.3392 18.7955 15.248C18.8566 15.4297 19.04 15.5508 19.2234 15.5508H20.2013C20.4459 15.5508 20.6292 15.3691 20.6292 15.1268V15.0662C20.3847 13.7333 19.2844 12.7034 17.8786 12.5823V11.1283C17.8786 10.8859 17.6952 10.7042 17.3896 10.6436H16.4727C16.2282 10.6436 16.0448 10.8253 15.9836 11.1283V12.5217C14.1498 12.7641 12.9886 13.9757 12.9886 15.4903C12.9886 17.4896 14.211 18.2771 16.7783 18.5801C18.4899 18.883 19.04 19.2465 19.04 20.2159C19.04 21.1853 18.1842 21.8516 17.0229 21.8516C15.4335 21.8516 14.8834 21.1851 14.7 20.2764C14.639 20.0341 14.4556 19.9129 14.2722 19.9129H13.233C12.9886 19.9129 12.8052 20.0946 12.8052 20.337V20.3976C13.0496 21.9121 14.0276 23.0026 16.0448 23.3056V24.7597C16.0448 25.0019 16.2282 25.1836 16.5338 25.2443H17.4506C17.6952 25.2443 17.8786 25.0625 17.9397 24.7597V23.3056C19.7735 23.0026 20.996 21.7304 20.996 20.0946Z"
                                    fill="url(#paint1_linear_1286_125062)"></path>
                                </g>
                                <g filter="url(#filter1_d_1286_125062)">
                                  <path
                                    d="M13.9024 26.3938C9.13459 24.6975 6.68949 19.4268 8.46225 14.7617C9.37915 12.2172 11.3963 10.2785 13.9024 9.36979C14.147 9.24867 14.2692 9.06692 14.2692 8.7639V7.91577C14.2692 7.67339 14.147 7.49164 13.9024 7.43115C13.8413 7.43115 13.7191 7.43115 13.6579 7.49164C7.85094 9.30915 4.67232 15.4282 6.50611 21.1836C7.60639 24.5763 10.2349 27.1814 13.6579 28.2719C13.9024 28.3931 14.147 28.2719 14.208 28.0296C14.2692 27.9691 14.2692 27.9084 14.2692 27.7873V26.9391C14.2692 26.7573 14.0858 26.5151 13.9024 26.3938ZM20.3819 7.49164C20.1373 7.37052 19.8928 7.49164 19.8318 7.73402C19.7706 7.79466 19.7706 7.85514 19.7706 7.97641V8.82453C19.7706 9.06692 19.954 9.30915 20.1373 9.43042C24.9052 11.1267 27.3503 16.3975 25.5775 21.0625C24.6606 23.607 22.6435 25.5457 20.1373 26.4544C19.8928 26.5756 19.7706 26.7573 19.7706 27.0603V27.9084C19.7706 28.1508 19.8928 28.3326 20.1373 28.3931C20.1985 28.3931 20.3207 28.3931 20.3819 28.3326C26.1888 26.5151 29.3675 20.396 27.5337 14.6406C26.4334 11.1873 23.7437 8.58215 20.3819 7.49164Z"
                                    fill="url(#paint2_linear_1286_125062)"></path>
                                </g>
                              </g>
                              <defs>
                                <filter id="filter0_d_1286_125062" x="8.72334" y="7.20963" width="16.3546"
                                  height="22.7643" filterUnits="userSpaceOnUse" color-interpolation-filters="sRGB">
                                  <feFlood flood-opacity="0" result="BackgroundImageFix"></feFlood>
                                  <feColorMatrix in="SourceAlpha" type="matrix"
                                    values="0 0 0 0 0 0 0 0 0 0 0 0 0 0 0 0 0 0 127 0" result="hardAlpha">
                                  </feColorMatrix>
                                  <feOffset dy="0.64791"></feOffset>
                                  <feGaussianBlur stdDeviation="2.04092"></feGaussianBlur>
                                  <feComposite in2="hardAlpha" operator="out"></feComposite>
                                  <feColorMatrix type="matrix" values="0 0 0 0 0 0 0 0 0 0 0 0 0 0 0 0 0 0 0.13 0">
                                  </feColorMatrix>
                                  <feBlend mode="normal" in2="BackgroundImageFix"
                                    result="effect1_dropShadow_1286_125062"></feBlend>
                                  <feBlend mode="normal" in="SourceGraphic" in2="effect1_dropShadow_1286_125062"
                                    result="shape"></feBlend>
                                </filter>
                                <filter id="filter1_d_1286_125062" x="1.90547" y="3.99723" width="30.2286"
                                  height="29.1256" filterUnits="userSpaceOnUse" color-interpolation-filters="sRGB">
                                  <feFlood flood-opacity="0" result="BackgroundImageFix"></feFlood>
                                  <feColorMatrix in="SourceAlpha" type="matrix"
                                    values="0 0 0 0 0 0 0 0 0 0 0 0 0 0 0 0 0 0 127 0" result="hardAlpha">
                                  </feColorMatrix>
                                  <feOffset dy="0.64791"></feOffset>
                                  <feGaussianBlur stdDeviation="2.04092"></feGaussianBlur>
                                  <feComposite in2="hardAlpha" operator="out"></feComposite>
                                  <feColorMatrix type="matrix" values="0 0 0 0 0 0 0 0 0 0 0 0 0 0 0 0 0 0 0.13 0">
                                  </feColorMatrix>
                                  <feBlend mode="normal" in2="BackgroundImageFix"
                                    result="effect1_dropShadow_1286_125062"></feBlend>
                                  <feBlend mode="normal" in="SourceGraphic" in2="effect1_dropShadow_1286_125062"
                                    result="shape"></feBlend>
                                </filter>
                                <radialGradient id="paint0_radial_1286_125062" cx="0" cy="0" r="1"
                                  gradientUnits="userSpaceOnUse"
                                  gradientTransform="translate(17 0.931152) rotate(90) scale(21.7411)">
                                  <stop stop-color="white"></stop>
                                  <stop offset="1" stop-color="white" stop-opacity="0"></stop>
                                </radialGradient>
                                <linearGradient id="paint1_linear_1286_125062" x1="16.9006" y1="10.6436" x2="22.4171"
                                  y2="26.1281" gradientUnits="userSpaceOnUse">
                                  <stop stop-color="white"></stop>
                                  <stop offset="1" stop-color="#D0D0D0"></stop>
                                </linearGradient>
                                <linearGradient id="paint2_linear_1286_125062" x1="17.0199" y1="7.43115" x2="21.611"
                                  y2="31.6119" gradientUnits="userSpaceOnUse">
                                  <stop stop-color="white"></stop>
                                  <stop offset="1" stop-color="#D0D0D0"></stop>
                                </linearGradient>
                                <clipPath id="clip0_1286_125062">
                                  <rect width="34" height="34" fill="white" transform="translate(0 0.931152)"></rect>
                                </clipPath>
                              </defs>
                            </svg>