<svg width="25" height="25" viewBox="0 0 35 35" fill="none"
                        xmlns="http://www.w3.org/2000/svg">
                        <g clip-path="url(#clip0_8042_322729)">
                          <g filter="url(#filter0_ii_8042_322729)">
                            <path fill-rule="evenodd" clip-rule="evenodd"
                              d="M6.32973 4.42358L0.0264027 17.6637C0.0024167 17.713 -0.0051843 17.7686 0.00471124 17.8225C0.0146068 17.8763 0.0414797 17.9256 0.0814002 17.9631L17.1052 34.276C17.1535 34.3224 17.2179 34.3483 17.2849 34.3483C17.3519 34.3483 17.4163 34.3224 17.4647 34.276L34.4885 17.9642C34.5284 17.9267 34.5552 17.8774 34.5651 17.8235C34.575 17.7696 34.5674 17.714 34.5434 17.6647L28.2401 4.4246C28.2198 4.38013 28.1871 4.34246 28.1459 4.31609C28.1047 4.28972 28.0568 4.27577 28.0079 4.2759H6.56398C6.51484 4.27529 6.46659 4.28891 6.42502 4.31511C6.38346 4.34131 6.35036 4.37898 6.32973 4.42358Z"
                              fill="url(#paint0_linear_8042_322729)"></path>
                          </g>
                          <path
                            d="M0.552425 17.722L6.71577 4.7759H27.8536L34.0174 17.723L17.2849 33.7558L0.552425 17.722ZM28.0092 4.7759C28.0088 4.7759 28.0084 4.7759 28.0079 4.7759L28.0092 4.7759ZM34.1461 17.5998L34.1425 17.6031C34.1437 17.602 34.1449 17.6009 34.1461 17.5998ZM34.0939 17.8837C34.0933 17.8823 34.0926 17.881 34.092 17.8797L34.0939 17.8837ZM17.4512 33.9151L17.4511 33.915L17.4512 33.9151Z"
                            stroke="url(#paint1_linear_8042_322729)" stroke-opacity="0.2"
                            style="mix-blend-mode: overlay;"></path>
                          <g filter="url(#filter1_d_8042_322729)">
                            <path fill-rule="evenodd" clip-rule="evenodd"
                              d="M19.472 19.0237C19.3498 19.0329 18.7184 19.0706 17.3098 19.0706C16.1895 19.0706 15.3941 19.0369 15.115 19.0237C10.7855 18.8332 7.55388 18.0796 7.55388 17.1772C7.55388 16.2748 10.7855 15.5222 15.115 15.3287V18.2731C15.3982 18.2935 16.2089 18.3413 17.3292 18.3413C18.6736 18.3413 19.3468 18.2853 19.468 18.2741V15.3307C23.7883 15.5232 27.0128 16.2769 27.0128 17.1772C27.0128 18.0775 23.7893 18.8312 19.468 19.0227L19.472 19.0237ZM19.472 15.0262V12.3914H25.5014V8.37354H9.08566V12.3914H15.114V15.0252C10.2141 15.2503 6.5293 16.2209 6.5293 17.384C6.5293 18.5471 10.2141 19.5166 15.114 19.7427V28.1859H19.471V19.7397C24.3597 19.5146 28.0384 18.545 28.0384 17.3829C28.0384 16.2209 24.3627 15.2513 19.471 15.0252L19.472 15.0262Z"
                              fill="url(#paint2_linear_8042_322729)"></path>
                          </g>
                        </g>
                        <defs>
                          <filter id="filter0_ii_8042_322729" x="-1.99951" y="2.27588" width="38.5688" height="34.0723"
                            filterUnits="userSpaceOnUse" color-interpolation-filters="sRGB">
                            <feFlood flood-opacity="0" result="BackgroundImageFix"></feFlood>
                            <feBlend mode="normal" in="SourceGraphic" in2="BackgroundImageFix" result="shape"></feBlend>
                            <feColorMatrix in="SourceAlpha" type="matrix"
                              values="0 0 0 0 0 0 0 0 0 0 0 0 0 0 0 0 0 0 127 0" result="hardAlpha"></feColorMatrix>
                            <feOffset dx="2" dy="2"></feOffset>
                            <feGaussianBlur stdDeviation="2"></feGaussianBlur>
                            <feComposite in2="hardAlpha" operator="arithmetic" k2="-1" k3="1"></feComposite>
                            <feColorMatrix type="matrix" values="0 0 0 0 0 0 0 0 0 0 0 0 0 0 0 0 0 0 0.25 0">
                            </feColorMatrix>
                            <feBlend mode="normal" in2="shape" result="effect1_innerShadow_8042_322729"></feBlend>
                            <feColorMatrix in="SourceAlpha" type="matrix"
                              values="0 0 0 0 0 0 0 0 0 0 0 0 0 0 0 0 0 0 127 0" result="hardAlpha"></feColorMatrix>
                            <feOffset dx="-2" dy="-2"></feOffset>
                            <feGaussianBlur stdDeviation="3.15"></feGaussianBlur>
                            <feComposite in2="hardAlpha" operator="arithmetic" k2="-1" k3="1"></feComposite>
                            <feColorMatrix type="matrix" values="0 0 0 0 1 0 0 0 0 1 0 0 0 0 1 0 0 0 0.17 0">
                            </feColorMatrix>
                            <feBlend mode="normal" in2="effect1_innerShadow_8042_322729"
                              result="effect2_innerShadow_8042_322729"></feBlend>
                          </filter>
                          <filter id="filter1_d_8042_322729" x="0.229297" y="3.07353" width="34.109" height="32.4125"
                            filterUnits="userSpaceOnUse" color-interpolation-filters="sRGB">
                            <feFlood flood-opacity="0" result="BackgroundImageFix"></feFlood>
                            <feColorMatrix in="SourceAlpha" type="matrix"
                              values="0 0 0 0 0 0 0 0 0 0 0 0 0 0 0 0 0 0 127 0" result="hardAlpha"></feColorMatrix>
                            <feOffset dy="1"></feOffset>
                            <feGaussianBlur stdDeviation="3.15"></feGaussianBlur>
                            <feComposite in2="hardAlpha" operator="out"></feComposite>
                            <feColorMatrix type="matrix" values="0 0 0 0 0 0 0 0 0 0 0 0 0 0 0 0 0 0 0.13 0">
                            </feColorMatrix>
                            <feBlend mode="normal" in2="BackgroundImageFix" result="effect1_dropShadow_8042_322729">
                            </feBlend>
                            <feBlend mode="normal" in="SourceGraphic" in2="effect1_dropShadow_8042_322729"
                              result="shape"></feBlend>
                          </filter>
                          <linearGradient id="paint0_linear_8042_322729" x1="17.2849" y1="4.27588" x2="17.2849"
                            y2="34.3483" gradientUnits="userSpaceOnUse">
                            <stop stop-color="#50AF95"></stop>
                            <stop offset="1" stop-color="#3D7364"></stop>
                          </linearGradient>
                          <linearGradient id="paint1_linear_8042_322729" x1="17.2849" y1="-12.7241" x2="17.2849"
                            y2="34.3483" gradientUnits="userSpaceOnUse">
                            <stop></stop>
                            <stop offset="1" stop-color="#666666" stop-opacity="0"></stop>
                          </linearGradient>
                          <linearGradient id="paint2_linear_8042_322729" x1="17.2839" y1="8.37354" x2="21.5"
                            y2="31.2759" gradientUnits="userSpaceOnUse">
                            <stop stop-color="white"></stop>
                            <stop offset="1" stop-color="#D0D0D0"></stop>
                          </linearGradient>
                          <clipPath id="clip0_8042_322729">
                            <rect width="34.57" height="30.0724" fill="white" transform="translate(0 4.27588)"></rect>
                          </clipPath>
                        </defs>
                      </svg>